<?xml version="1.0" encoding="UTF-8"?>
<svg version="1.1" viewBox="0 0 838 1146" width="838" height="1146" xmlns="http://www.w3.org/2000/svg">
<path transform="translate(754,43)" d="m0 0h3l-1 17-13 125-7 63-4 26-5 19-7 16-6 10-9 10-11 9-15 7-10 3h-7l-6-16-7-14-10-15-13-15-10-9-8-6 4 13 9 31 7 25 4 19 1 9v25l-3 20-6 21-8 25-4 18-1 19 2 19 5 19 8 16 9 14 12 14 12 12 11 9 18 14 19 13 13 11 11 9 11 12 10 15 7 16 4 15 1 7v30l-3 26-2 11-3-3-7-12-12-16-12-13-15-15-11-9-13-11-19-14-16-12-14-11-10-9-8-7-16-16-9-11-11-14-9-14-10-18-9-21-6-20-3-15-1 8v35l2 17 5 22 9 21 9 16 10 13 12 14 25 25 11 9 14 12 19 14 18 13 19 14 13 11 8 7 10 10 13 17 11 20 6 17 4 16 2 16v33l-3 20-4 15-6 16-8 15-10 14-11 12-8 8-13 10-17 10-19 9-18 6-2-1 8-10 10-15 9-16 8-16 7-19 5-21 2-15v-26l-3-21-6-20-9-19-11-16-9-10-7-8-10-9-13-11-16-12-21-16-13-10-11-9-13-11-26-26-11-14-13-18-14-24-8-16-9-19-8-21-6-19-6-29-1-7-1 12v42l3 25 6 26 7 20 7 16 11 19 10 14 9 11 18 20 10 10 8 7 13 12 8 7 15 14 13 12 12 12 9 11 8 9 12 18 8 16 6 18 2 10 1 15-1 16-4 18-6 15-6 11-10 14-10 9-11 5-10 1-9-2-9-5-7-7-4-8-1-4v-21l5-15 9-20 4-14 1-6v-8l-3-15-5-11-6-10-8-10-6-7-2-1v8l-6 35-7 37-4 27-1 13v25l3 21 5 19 7 17 9 17 12 17 14 17 5 5v2l-15 5-16 3h-16l-17-4-14-7-10-8-7-7-10-15-7-15-4-13-3-17-1-9v-36l2-21 5-29 11-53 4-31v-21l-3-21-5-17-7-16v-3l-1 1-1 16-6 36-11 48-14 58-8 40-4 31-2 25-3 12-4 8-4 5-9 6-8 3-10 1-11-2-9-5-7-7-4-8-2-12v-15l2-15 6-20 11-26 13-26 10-19 1-4-6 7-16 16-9 11-14 18-11 17-11 20-7 18-4 16-2 13v29l4 27 4 15 2 7-9-1-17-5-17-9-13-12-9-13-6-14-3-12-1-8v-25l4-18 6-15 7-13 8-11 8-10 12-13 11-12 9-9 8-7 22-22 7-8 11-12 11-14 10-14 11-18 10-19 8-21 5-19 3-18 1-12v-31l-2-21-4-22v12l-1 22-3 22-5 21-7 21-12 25-11 18-9 12-11 13-23 23-11 9-15 12-17 12-17 11-24 14-23 12-19 8-17 6-10 2h-12l-10-3-10-7-6-10-1-3v-15l6-12 10-8 25-12 28-12 26-12 23-12 19-12 11-8 10-8 10-9 17-17 15-20 12-21 9-21 6-18 4-20 2-19v-27l-3-27-5-24-2-7v47l-3 24-5 23-9 26-8 17-11 18-10 13-9 10-16 16-14 11-10 7-16 10-23 12-20 9-38 13-36 9-30 5h-26l-13-4-8-6-5-7-2-10 1-9 4-8 7-7 12-6 19-5 50-9 32-8 26-9 25-12 16-10 12-9 14-12 11-12 10-14 8-14 6-14 4-14 2-13v-10l-1-8-1-1-8 16-9 13-12 14-13 12-17 12-17 9-15 6-23 6-17 3-21 2h-30l-21-3-12-4-10-6-6-9-2-8 1-11 3-6 5-6 12-6 14-3 44-2 26-3 24-6 16-7 11-6 13-10 8-8 10-15 5-14 3-11 4-6 5-4 13-5 27-9 9-6 2-3v-5l-2-2h-13l-24 5-57 15-29 6-23 3h-27l-15-2-4-1 3-12 8-21 8-16 9-14 9-12 11-12 16-16 14-11 13-9 21-12 27-12 12-6 5-5 2-5v-3l-2-1h-7l-17 4-21 6h-12l-4-2-1-5 1-22 3-22 5-22 7-21 8-18 11-20 12-17 13-15 17-17 14-11 15-11 21-12 25-12 26-10 35-11 42-11 46-11 59-13 64-16 37-10 42-13zm-210 97-24 3-25 5-35 10-27 10-29 14-17 10-12 8-16 12-13 11-10 9-14 14-9 11-10 13-12 20-7 16-3 14 1 7 2 2h6l7-6 13-21 14-18 12-14 21-21 11-9 12-10 17-12 17-11 21-12 23-12 24-12 32-14 24-9 23-7v-1zm-119 137-17 4-16 7-10 7-10 9-8 9-8 13-5 13-3 15v24l3 15 5 13 7 13 7 9 11 12 14 10 14 6 16 4h24l17-4 16-7 13-9 13-12 11-15 7-15 4-14 1-7v-23l-3-14-5-13-7-12-11-13-13-10-15-8-16-5-11-2z"/>
<path transform="translate(431,321)" d="m0 0h16l12 4 9 6 7 7 6 12 2 7v20l-4 13-7 11-7 7-11 6-13 3-13-1-11-4-8-6-5-5-4-5-4-8-3-12v-14l3-12 5-10 8-9 10-6 7-3z"/>
</svg>
